M48
; DRILL file {KiCad 5.1.0} date Mon 08 Apr 2019 09:41:55 AM -05
; FORMAT={-:-/ absolute / metric / decimal}
; #@! TF.CreationDate,2019-04-08T09:41:55-05:00
; #@! TF.GenerationSoftware,Kicad,Pcbnew,5.1.0
FMAT,2
METRIC
T1C0.700
T2C0.800
T3C0.900
T4C1.000
T5C1.200
T6C1.300
T7C1.520
T8C2.500
T9C3.000
T10C3.500
%
G90
G05
T1
X52.832Y-52.324
X55.575Y-64.364
X57.404Y-52.324
X61.468Y-38.1
X62.865Y-64.364
X65.532Y-38.1
X73.66Y-42.037
X73.66Y-57.963
X75.692Y-42.824
X75.692Y-54.204
X89.662Y-21.59
X95.25Y-21.59
X125.73Y-19.685
X140.335Y-19.685
T2
X46.228Y-59.436
X46.228Y-61.436
X66.929Y-57.658
X67.056Y-53.34
X95.885Y-24.765
X106.045Y-24.765
X50.8Y-54.61
X50.8Y-57.15
X50.8Y-59.69
X50.8Y-62.23
X58.42Y-54.61
X58.42Y-57.15
X58.42Y-59.69
X58.42Y-62.23
X41.91Y-33.02
X52.07Y-33.02
X47.625Y-41.91
X47.625Y-44.45
X47.625Y-46.99
X47.625Y-49.53
X55.245Y-41.91
X55.245Y-44.45
X55.245Y-46.99
X55.245Y-49.53
X41.91Y-17.78
X52.07Y-17.78
X41.91Y-30.055
X52.07Y-30.055
X107.315Y-20.955
X117.475Y-20.955
X71.12Y-24.765
X71.12Y-27.305
X71.12Y-29.845
X71.12Y-32.385
X71.12Y-34.925
X71.12Y-37.465
X71.12Y-40.005
X71.12Y-42.545
X71.12Y-45.085
X71.12Y-47.625
X71.12Y-50.165
X71.12Y-52.705
X71.12Y-55.245
X71.12Y-57.785
X71.12Y-60.325
X86.36Y-24.765
X86.36Y-27.305
X86.36Y-29.845
X86.36Y-32.385
X86.36Y-34.925
X86.36Y-37.465
X86.36Y-40.005
X86.36Y-42.545
X86.36Y-45.085
X86.36Y-47.625
X86.36Y-50.165
X86.36Y-52.705
X86.36Y-55.245
X86.36Y-57.785
X86.36Y-60.325
X41.91Y-20.955
X52.07Y-20.955
T3
X41.91Y-24.13
X52.07Y-24.13
X41.91Y-36.195
X52.07Y-36.195
T4
X89.535Y-24.13
X89.535Y-26.67
X89.535Y-29.21
X62.992Y-52.705
X62.992Y-55.245
X62.992Y-57.785
X62.992Y-60.325
X89.535Y-52.705
X89.535Y-55.245
X89.535Y-57.785
X89.535Y-60.325
X82.042Y-96.901
X82.042Y-99.441
X82.042Y-101.981
X82.042Y-104.521
X77.724Y-96.901
X77.724Y-99.441
X77.724Y-101.981
X77.724Y-104.521
X77.724Y-112.141
X77.724Y-114.681
X77.724Y-117.221
X66.675Y-24.765
X66.675Y-27.305
X66.675Y-29.845
X66.675Y-32.385
X66.675Y-34.925
X43.26Y-74.295
X43.26Y-79.295
X48.26Y-74.295
X48.26Y-79.295
X53.975Y-68.58
X53.975Y-85.979
X93.599Y-68.58
X93.599Y-85.979
X130.81Y-62.865
X133.35Y-62.865
X135.89Y-62.865
X138.43Y-62.865
X140.97Y-62.865
X143.51Y-62.865
X146.05Y-62.865
X148.59Y-62.865
X130.81Y-74.93
X133.35Y-74.93
X135.89Y-74.93
X138.43Y-74.93
X140.97Y-74.93
X143.51Y-74.93
X146.05Y-74.93
X148.59Y-74.93
T5
X102.235Y-16.51
X104.775Y-16.51
X107.315Y-16.51
X109.855Y-16.51
X112.395Y-16.51
X114.935Y-16.51
X117.475Y-16.51
X120.015Y-16.51
X122.555Y-16.51
X125.095Y-16.51
X127.635Y-16.51
X130.175Y-16.51
X132.715Y-16.51
X135.255Y-16.51
X137.795Y-16.51
X140.335Y-16.51
T6
X36.576Y-48.895
X36.576Y-58.415
T7
X33.655Y-22.86
X33.655Y-27.94
X33.655Y-34.925
X33.655Y-40.005
X34.925Y-74.295
X34.925Y-79.375
T8
X96.736Y-16.51
X96.736Y-47.511
X171.734Y-47.511
X171.735Y-16.51
T9
X31.75Y-90.805
X31.75Y-124.079
X77.47Y-90.805
X77.724Y-124.079
T10
X180.975Y-17.145
X22.225Y-124.46
X22.86Y-17.78
X180.975Y-120.65
T0
M30
